<svg width="36" height="36" viewBox="0 0 36 36" fill="none" xmlns="http://www.w3.org/2000/svg">
<g id="vuesax/linear/building">
<g id="vuesax/linear/building_2">
<g id="building">
<path id="Vector" d="M18.7496 33H6.11959C4.37959 33 2.95459 31.605 2.95459 29.895V7.63504C2.95459 3.70504 5.87959 1.92004 9.46459 3.67504L16.1246 6.94504C17.5646 7.65004 18.7496 9.52504 18.7496 11.115V33Z" stroke="#292D32" stroke-width="2.25" stroke-linecap="round" stroke-linejoin="round"/>
<path id="Vector_2" d="M32.955 22.5904V28.2604C32.955 31.5004 31.455 33.0004 28.215 33.0004H18.75V15.6304L19.455 15.7804L26.205 17.2954L29.25 17.9704C31.23 18.4054 32.85 19.4254 32.94 22.3054C32.955 22.3954 32.955 22.4854 32.955 22.5904Z" stroke="#292D32" stroke-width="2.25" stroke-linecap="round" stroke-linejoin="round"/>
<path id="Vector_3" d="M8.25 13.5H13.455" stroke="#292D32" stroke-width="2.25" stroke-linecap="round" stroke-linejoin="round"/>
<path id="Vector_4" d="M8.25 19.5H13.455" stroke="#292D32" stroke-width="2.25" stroke-linecap="round" stroke-linejoin="round"/>
<path id="Vector_5" d="M26.2046 17.295V22.125C26.2046 23.985 24.6896 25.5 22.8296 25.5C20.9696 25.5 19.4546 23.985 19.4546 22.125V15.78L26.2046 17.295Z" stroke="#292D32" stroke-width="2.25" stroke-linecap="round" stroke-linejoin="round"/>
<path id="Vector_6" d="M32.9396 22.3049C32.8496 24.0749 31.3796 25.4999 29.5796 25.4999C27.7196 25.4999 26.2046 23.9849 26.2046 22.1249V17.2949L29.2496 17.9699C31.2296 18.4049 32.8496 19.4249 32.9396 22.3049Z" stroke="#292D32" stroke-width="2.25" stroke-linecap="round" stroke-linejoin="round"/>
</g>
</g>
</g>
</svg>
