<svg width="37" height="38" viewBox="0 0 37 38" fill="none" xmlns="http://www.w3.org/2000/svg">
<g id="vuesax/linear/house">
<g id="vuesax/linear/house_2">
<g id="house">
<path id="Vector" d="M3.01807 34.6685H33.0216" stroke="#28201A" stroke-width="2.36444" stroke-miterlimit="10" stroke-linecap="round" stroke-linejoin="round"/>
<path id="Vector_2" d="M4.44336 34.6684L4.51837 15.711C4.51837 14.7497 4.95342 13.8358 5.6735 13.237L16.1747 4.64867C17.2549 3.7662 18.77 3.7662 19.8652 4.64867L30.3664 13.2212C31.1015 13.8201 31.5215 14.734 31.5215 15.711V34.6684" stroke="#28201A" stroke-width="2.36444" stroke-miterlimit="10" stroke-linejoin="round"/>
<path id="Vector_3" d="M19.5201 26.7893H16.5198C15.2746 26.7893 14.2695 27.8451 14.2695 29.1531V34.6685H21.7704V29.1531C21.7704 27.8451 20.7653 26.7893 19.5201 26.7893Z" stroke="#28201A" stroke-width="2.36444" stroke-miterlimit="10" stroke-linejoin="round"/>
<path id="Vector_4" d="M14.2693 21.6678H11.269C10.4439 21.6678 9.7688 20.9587 9.7688 20.0919V17.7282C9.7688 16.8615 10.4439 16.1523 11.269 16.1523H14.2693C15.0944 16.1523 15.7695 16.8615 15.7695 17.7282V20.0919C15.7695 20.9587 15.0944 21.6678 14.2693 21.6678Z" stroke="#28201A" stroke-width="2.36444" stroke-miterlimit="10" stroke-linejoin="round"/>
<path id="Vector_5" d="M24.7708 21.6678H21.7704C20.9453 21.6678 20.2703 20.9587 20.2703 20.0919V17.7282C20.2703 16.8615 20.9453 16.1523 21.7704 16.1523H24.7708C25.5959 16.1523 26.271 16.8615 26.271 17.7282V20.0919C26.271 20.9587 25.5959 21.6678 24.7708 21.6678Z" stroke="#28201A" stroke-width="2.36444" stroke-miterlimit="10" stroke-linejoin="round"/>
<path id="Vector_6" d="M28.5213 11.0307L28.4763 6.30322H21.8755" stroke="#28201A" stroke-width="2.36444" stroke-miterlimit="10" stroke-linecap="round" stroke-linejoin="round"/>
</g>
</g>
</g>
</svg>
